<?xml version="1.0" encoding="UTF-8" standalone="no"?>
<svg
   xmlns:dc="http://purl.org/dc/elements/1.1/"
   xmlns:cc="http://creativecommons.org/ns#"
   xmlns:rdf="http://www.w3.org/1999/02/22-rdf-syntax-ns#"
   xmlns:svg="http://www.w3.org/2000/svg"
   xmlns="http://www.w3.org/2000/svg"
   xmlns:sodipodi="http://sodipodi.sourceforge.net/DTD/sodipodi-0.dtd"
   xmlns:inkscape="http://www.inkscape.org/namespaces/inkscape"
   sodipodi:docname="att.svg"
   inkscape:version="1.0beta2 (2b71d25, 2019-12-03)"
   version="1.1"
   id="svg4709"
   height="381"
   width="381.3746">
  <defs
     id="defs4711" />
  <sodipodi:namedview
     inkscape:document-rotation="0"
     inkscape:window-maximized="1"
     inkscape:window-y="23"
     inkscape:window-x="0"
     inkscape:window-height="1395"
     inkscape:window-width="2560"
     fit-margin-bottom="0"
     fit-margin-right="0"
     fit-margin-left="0"
     fit-margin-top="0"
     showgrid="false"
     inkscape:current-layer="layer1"
     inkscape:document-units="px"
     inkscape:cy="194.73084"
     inkscape:cx="366.95642"
     inkscape:zoom="0.98994949"
     inkscape:pageshadow="2"
     inkscape:pageopacity="0.0"
     borderopacity="1.0"
     bordercolor="#666666"
     pagecolor="#ffffff"
     id="base" />
  <metadata
     id="metadata4714">
    <rdf:RDF>
      <cc:Work
         rdf:about="">
        <dc:format>image/svg+xml</dc:format>
        <dc:type
           rdf:resource="http://purl.org/dc/dcmitype/StillImage" />
        <dc:title />
      </cc:Work>
    </rdf:RDF>
  </metadata>
  <g
     transform="translate(-8.0435761,-499.46941)"
     id="layer1"
     inkscape:groupmode="layer"
     inkscape:label="Layer 1">
    <g
       transform="translate(-3.0304579,2.020305)"
       id="g94">
      <path
         inkscape:connector-curvature="0"
         style="fill:#00aeef"
         id="path37-4"
         d="m 390.52826,658.61818 c 2.28926,9.90569 1.90052,24.00114 1.52617,24.00114 0,0 -84.19838,0.76309 -96.00458,-0.37434 l -94.10407,-8.75387 H 66.707164 c -22.489376,0 -55.63313,3.81542 -55.63313,3.81542 0,-12.19494 1.914908,-17.14779 1.914908,-17.14779 0,0 30.48016,5.34159 49.902803,6.47902 30.480159,1.90051 145.144305,0 145.144305,0 0,0 71.25475,-6.85336 116.20471,-8.00519 h 66.2875"
         clip-path="none" />
      <path
         inkscape:connector-curvature="0"
         style="fill:#00aeef"
         id="path39-0"
         d="m 382.52308,626.23751 c 0,0 4.95285,14.85853 6.47902,24.76423 0,0 -62.86083,1.13742 -86.47324,0 -23.23806,-1.13743 -99.82,-10.28004 -99.82,-9.9057 0,0 -123.821151,0 -131.811934,-0.37434 -7.630838,0 -55.244389,4.56411 -55.244389,4.56411 l 4.189762,-15.24728 c 0,0 25.138572,3.81542 48.765375,4.18976 26.290398,0.37434 144.769956,0 144.769956,0 0,0 53.32949,-6.47901 87.62506,-8.00518 31.61759,-1.51177 81.52039,0.0144 81.52039,0.0144"
         clip-path="none" />
      <path
         inkscape:connector-curvature="0"
         style="fill:#00aeef"
         id="path41-9"
         d="m 280.80257,561.08742 c 24.76423,-1.13742 63.62391,0 63.62391,0 0,0 9.9057,10.66878 18.67396,24.38989 0,0 -63.23517,0 -76.95628,-0.38874 -17.52214,-0.35995 -89.52557,-8.37953 -89.52557,-8.37953 H 83.840555 l -39.622767,2.28926 8.768265,-11.79181 c 0,0 41.912019,3.41228 90.288657,3.41228 h 0.38874 c 26.276,0 59.80849,-1.13743 59.80849,-1.13743 0,0 46.86487,-6.86775 77.33063,-8.39392"
         clip-path="none" />
      <path
         inkscape:connector-curvature="0"
         style="fill:#00aeef"
         id="path43-4"
         d="m 195.09242,700.5302 c 0,0 70.10293,-9.14261 98.29383,-10.28004 19.0483,-0.77748 99.04253,0 99.04253,0 0,-0.0144 0.38874,7.99078 -2.27486,23.98675 H 286.90724 l -97.53075,-8.00518 -121.5319,0.37434 -55.244388,3.81542 c -1.526168,-9.14261 -1.137427,-19.43704 -1.137427,-19.43704 0,0 42.286361,9.53135 56.007472,9.53135 H 195.09242"
         clip-path="none" />
      <path
         inkscape:connector-curvature="0"
         style="fill:#00aeef"
         id="path45-8"
         d="m 205.37245,521.8534 c -22.08623,-2.678 -34.28118,-9.14261 -96.76766,-0.76309 0.38874,0 34.66992,-23.6412 95.2415,-23.6412 54.10696,0 92.5779,25.15297 92.5779,25.15297 0,0 -77.71937,1.15183 -91.05174,-0.74868"
         clip-path="none" />
      <path
         inkscape:connector-curvature="0"
         style="fill:#00aeef"
         id="path47-8"
         d="m 106.70427,852.15351 h 190.87175 c -57.90799,33.90684 -128.38526,36.19609 -190.87175,0"
         clip-path="none" />
      <path
         inkscape:connector-curvature="0"
         style="fill:#00aeef"
         id="path49-2"
         d="M 309.00788,844.53707 H 94.509331 C 77.375939,834.25704 65.180996,820.14718 65.180996,820.14718 H 338.33621 c 0,0 -11.8062,12.19495 -29.32833,24.38989"
         clip-path="none" />
      <path
         inkscape:connector-curvature="0"
         style="fill:#00aeef"
         id="path51-4"
         d="m 363.47478,787.76651 c -7.2277,12.95803 -17.89647,24.76423 -18.28521,24.76423 0.38874,-0.35994 -286.876328,0.38875 -287.250671,0 -9.905692,-11.43186 -17.14779,-24.36109 -18.285217,-24.76423 v -0.35994 c 5.71593,0.35994 323.446758,0.76308 323.821098,0 v 0.35994"
         clip-path="none" />
      <path
         inkscape:connector-curvature="0"
         style="fill:#00aeef"
         id="path53-5"
         d="m 379.85949,755.0115 c 0,0 -5.32719,14.84414 -11.8062,25.12418 0,0 -85.33581,0 -100.58309,-0.35995 -24.76423,0.35995 -120.38007,-3.81542 -150.48589,-3.05233 l -82.657817,1.90051 c -6.10467,-11.80621 -11.057516,-25.52732 -11.057516,-25.52732 0,0 72.766522,6.11907 102.109253,6.11907 h 0.37435 c 43.81253,0 127.24782,-4.18976 127.24782,-4.18976 h 126.85909"
         clip-path="none" />
      <path
         inkscape:connector-curvature="0"
         style="fill:#00aeef"
         id="path55-5"
         d="m 382.14874,748.14375 c -6.10467,0 -109.72569,-0.35995 -132.57502,-1.49738 -63.62391,-4.96724 -109.33695,-7.24209 -119.24264,-7.24209 -20.20013,0.35994 -110.114438,6.85335 -110.114438,6.85335 -4.938448,-15.99596 -5.327189,-22.47497 -5.327189,-22.47497 71.629094,7.60204 100.194347,9.50255 115.052887,9.1426 55.24439,-0.37434 117.34213,-8.01958 141.34328,-10.28003 14.4698,-1.52617 117.71648,0 117.71648,0 -2.6636,14.4554 -6.85336,25.12417 -6.85336,25.49852"
         clip-path="none" />
      <path
         inkscape:connector-curvature="0"
         style="fill:#00aeef"
         id="path57-1"
         d="m 309.00788,529.85858 c 0,0 14.84414,7.61644 29.32833,24.37549 0,0 -64.387,-0.37435 -77.71937,-1.52617 -11.04312,-1.13743 -79.24553,-7.60205 -79.24553,-7.60205 0,0 -55.61873,-0.37434 -68.18802,-0.37434 -13.721113,0 -42.286364,3.80102 -42.286364,3.80102 l 15.621621,-13.33237 c 0,0 23.238063,4.18977 51.803313,3.42668 11.8206,-0.37434 36.95917,-0.37434 47.62795,-1.52617 10.66878,-1.13742 50.29154,-7.2277 62.09775,-7.2277 14.09545,-0.40313 60.96032,-0.0144 60.96032,-0.0144"
         clip-path="none" />
      <path
         inkscape:connector-curvature="0"
         style="fill:#00aeef"
         id="path59-7"
         d="m 208.79913,602.6251 c 0,0 69.72859,-7.2565 85.33581,-8.01958 21.72629,-1.13743 73.91835,-0.76308 73.91835,-0.76308 0,0 7.24209,11.8062 11.43186,24.37549 0,0 -68.57676,0.76308 -78.8712,0 l -96.37892,-8.75387 -130.300167,-0.38874 -48.002292,4.18976 6.104671,-12.92923 c 0,0 27.427824,1.51177 52.192054,2.66359 L 208.79913,602.6251"
         clip-path="none" />
    </g>
  </g>
</svg>
