<?xml version="1.0" encoding="UTF-8"?> <!-- Generator: Adobe Illustrator 23.0.3, SVG Export Plug-In . SVG Version: 6.00 Build 0) --> <svg xmlns:cc="http://creativecommons.org/ns#" xmlns:dc="http://purl.org/dc/elements/1.1/" xmlns:rdf="http://www.w3.org/1999/02/22-rdf-syntax-ns#" xmlns="http://www.w3.org/2000/svg" xmlns:xlink="http://www.w3.org/1999/xlink" id="logo" x="0px" y="0px" viewBox="0 0 400 300" style="enable-background:new 0 0 400 300;" xml:space="preserve"> <style type="text/css"> .st0{fill:#1DA1F2;} </style> <path id="logo_1_" class="st0" d="M141.1,279.1c119.9,0,185.4-99.3,185.4-185.4c0-2.8-0.1-5.6-0.2-8.4c12.7-9.2,23.8-20.7,32.5-33.7 c-11.7,5.2-24.2,8.7-37.4,10.3c13.5-8.1,23.8-20.8,28.7-36c-12.6,7.5-26.5,12.9-41.4,15.8c-11.9-12.7-28.8-20.6-47.6-20.6 c-36,0-65.2,29.2-65.2,65.2c0,5.1,0.6,10.1,1.7,14.9C143.5,98.2,95.4,72.3,63.3,32.8c-5.6,9.6-8.8,20.8-8.8,32.8 c0,22.6,11.5,42.6,29,54.3c-10.7-0.3-20.7-3.3-29.5-8.2c0,0.3,0,0.5,0,0.8c0,31.6,22.5,57.9,52.3,63.9c-5.5,1.5-11.2,2.3-17.2,2.3 c-4.2,0-8.3-0.4-12.2-1.2c8.3,25.9,32.4,44.7,60.9,45.3c-22.3,17.5-50.4,27.9-80.9,27.9c-5.3,0-10.4-0.3-15.5-0.9 C70,268.3,104.3,279.1,141.1,279.1"></path> </svg> 